# MagicaVoxel @ Ephtracy

# group
o 

# material
mtllib head.mtl
usemtl palette

# normals
vn -1 0 0
vn 1 0 0
vn 0 0 1
vn 0 0 -1
vn 0 -1 0
vn 0 1 0

# texcoords
vt 0.314453 0.5
vt 0.958984 0.5
vt 0.982422 0.5
vt 0.990234 0.5

# verts
v -1.2 1.6 0.2
v -1.2 1.6 0
v -1.2 2 0.2
v -1.2 2 0
v -1.1 1.5 0.2
v -1.1 1.5 0
v -1.1 1.6 0.2
v -1.1 1.6 0
v -1 1.4 0.2
v -1 1.4 0
v -1 1.5 0.2
v -1 1.5 0
v -0.9 1.3 0.2
v -0.9 1.3 0
v -0.9 1.4 0.2
v -0.9 1.4 0
v -0.8 0.2 0.7
v -0.8 0.2 -0.6
v -0.8 1.3 0.2
v -0.8 1.3 0
v -0.8 1.4 0.7
v -0.8 1.4 0.2
v -0.8 1.4 0
v -0.8 1.4 -0.6
v -0.7 0.3 0.8
v -0.7 0.3 0.7
v -0.7 1.4 0.8
v -0.7 1.4 0.7
v -0.6 0.2 0.8
v -0.6 0.2 0.7
v -0.6 0.3 0.8
v -0.6 0.3 0.7
v -0.6 1.3 0.9
v -0.6 1.3 0.8
v -0.6 1.4 0.8
v -0.6 1.4 -0.6
v -0.6 1.5 0.9
v -0.6 1.5 -0.6
v -0.5 0.4 0.8
v -0.5 0.4 0.7
v -0.5 1 0.8
v -0.5 1 0.7
v -0.4 1.2 0.9
v -0.4 1.2 0.8
v -0.4 1.3 0.9
v -0.4 1.3 0.8
v -0.3 0.9 0.8
v -0.3 0.9 0.7
v -0.3 1 0.8
v -0.3 1 0.7
v -0.3 1.1 0.9
v -0.3 1.1 0.8
v -0.3 1.2 0.9
v -0.3 1.2 0.8
v -0.2 0.3 0.8
v -0.2 0.3 0.7
v -0.2 0.9 0.9
v -0.2 0.9 0.8
v -0.2 0.9 0.7
v -0.2 1.1 0.9
v -0.2 1.1 0.8
v 0.2 0.3 0.8
v 0.2 0.3 0.7
v 0.2 0.5 0.7
v 0.2 0.8 0.7
v 0.2 1 0.8
v 0.2 1 0.7
v 0.4 0.4 0.8
v 0.4 0.4 0.7
v 0.4 1 0.8
v 0.4 1 0.7
v 0.5 1.4 0.2
v 0.5 1.4 0
v 0.5 1.5 0.2
v 0.5 1.5 0
v 0.6 1.5 0.2
v 0.6 1.5 0
v 0.6 1.6 0.2
v 0.6 1.6 0
v 0.7 1.6 0.2
v 0.7 1.6 0
v 0.7 1.7 0.2
v 0.7 1.7 0
v 0.8 1.7 0.2
v 0.8 1.7 0
v 0.8 2 0.2
v 0.8 2 0
v -1 1.7 0.2
v -1 1.7 0
v -1 2 0.2
v -1 2 0
v -0.9 1.6 0.2
v -0.9 1.6 0
v -0.9 1.7 0.2
v -0.9 1.7 0
v -0.8 1.5 0.2
v -0.8 1.5 0
v -0.8 1.6 0.2
v -0.8 1.6 0
v -0.7 1.4 0.2
v -0.7 1.4 0
v -0.7 1.5 0.2
v -0.7 1.5 0
v -0.6 0.4 0.8
v -0.6 0.4 0.7
v -0.6 1 0.8
v -0.6 1 0.7
v -0.4 0.3 0.8
v -0.4 0.3 0.7
v -0.4 0.5 0.7
v -0.4 0.8 0.7
v -0.4 1 0.8
v -0.4 1 0.7
v 1.19209e-07 0.3 0.8
v 1.19209e-07 0.3 0.7
v 1.19209e-07 0.9 0.9
v 1.19209e-07 0.9 0.8
v 1.19209e-07 0.9 0.7
v 1.19209e-07 1.1 0.9
v 1.19209e-07 1.1 0.8
v 0.1 0.9 0.8
v 0.1 0.9 0.7
v 0.1 1 0.8
v 0.1 1 0.7
v 0.1 1.1 0.9
v 0.1 1.1 0.8
v 0.1 1.2 0.9
v 0.1 1.2 0.8
v 0.2 1.2 0.9
v 0.2 1.2 0.8
v 0.2 1.3 0.9
v 0.2 1.3 0.8
v 0.3 0.4 0.8
v 0.3 0.4 0.7
v 0.3 1 0.8
v 0.3 1 0.7
v 0.4 0.2 0.8
v 0.4 0.2 0.7
v 0.4 0.3 0.8
v 0.4 0.3 0.7
v 0.4 1.3 0.9
v 0.4 1.3 0.8
v 0.4 1.4 0.8
v 0.4 1.4 -0.6
v 0.4 1.5 0.9
v 0.4 1.5 -0.6
v 0.5 0.3 0.8
v 0.5 0.3 0.7
v 0.5 1.4 0.8
v 0.5 1.4 0.7
v 0.6 0.2 0.7
v 0.6 0.2 -0.6
v 0.6 1.3 0.2
v 0.6 1.3 0
v 0.6 1.4 0.7
v 0.6 1.4 0.2
v 0.6 1.4 0
v 0.6 1.4 -0.6
v 0.7 1.3 0.2
v 0.7 1.3 0
v 0.7 1.4 0.2
v 0.7 1.4 0
v 0.8 1.4 0.2
v 0.8 1.4 0
v 0.8 1.5 0.2
v 0.8 1.5 0
v 0.9 1.5 0.2
v 0.9 1.5 0
v 0.9 1.6 0.2
v 0.9 1.6 0
v 1 1.6 0.2
v 1 1.6 0
v 1 2 0.2
v 1 2 0
v -0.6 1.3 0.9
v -0.6 1.5 0.9
v -0.4 1.2 0.9
v -0.4 1.3 0.9
v -0.3 1.1 0.9
v -0.3 1.2 0.9
v -0.2 0.9 0.9
v -0.2 1.1 0.9
v 1.19209e-07 0.9 0.9
v 1.19209e-07 1.1 0.9
v 0.1 1.1 0.9
v 0.1 1.2 0.9
v 0.2 1.2 0.9
v 0.2 1.3 0.9
v 0.4 1.3 0.9
v 0.4 1.5 0.9
v -0.7 0.3 0.8
v -0.7 1.4 0.8
v -0.6 0.2 0.8
v -0.6 0.3 0.8
v -0.6 0.4 0.8
v -0.6 1 0.8
v -0.6 1.3 0.8
v -0.6 1.4 0.8
v -0.5 0.4 0.8
v -0.5 1 0.8
v -0.4 0.3 0.8
v -0.4 1 0.8
v -0.4 1.2 0.8
v -0.4 1.3 0.8
v -0.3 0.9 0.8
v -0.3 1 0.8
v -0.3 1.1 0.8
v -0.3 1.2 0.8
v -0.2 0.3 0.8
v -0.2 0.9 0.8
v -0.2 1.1 0.8
v 1.19209e-07 0.3 0.8
v 1.19209e-07 0.9 0.8
v 1.19209e-07 1.1 0.8
v 0.1 0.9 0.8
v 0.1 1 0.8
v 0.1 1.1 0.8
v 0.1 1.2 0.8
v 0.2 0.3 0.8
v 0.2 1 0.8
v 0.2 1.2 0.8
v 0.2 1.3 0.8
v 0.3 0.4 0.8
v 0.3 1 0.8
v 0.4 0.2 0.8
v 0.4 0.3 0.8
v 0.4 0.4 0.8
v 0.4 1 0.8
v 0.4 1.3 0.8
v 0.4 1.4 0.8
v 0.5 0.3 0.8
v 0.5 1.4 0.8
v -0.8 0.2 0.7
v -0.8 1.4 0.7
v -0.7 0.3 0.7
v -0.7 1.4 0.7
v -0.6 0.2 0.7
v -0.6 0.3 0.7
v -0.6 0.4 0.7
v -0.6 1 0.7
v -0.5 0.4 0.7
v -0.5 1 0.7
v -0.4 0.3 0.7
v -0.4 0.5 0.7
v -0.4 0.8 0.7
v -0.4 1 0.7
v -0.3 0.5 0.7
v -0.3 0.8 0.7
v -0.3 0.9 0.7
v -0.3 1 0.7
v -0.2 0.3 0.7
v -0.2 0.9 0.7
v 1.19209e-07 0.3 0.7
v 1.19209e-07 0.9 0.7
v 0.1 0.5 0.7
v 0.1 0.8 0.7
v 0.1 0.9 0.7
v 0.1 1 0.7
v 0.2 0.3 0.7
v 0.2 0.5 0.7
v 0.2 0.8 0.7
v 0.2 1 0.7
v 0.3 0.4 0.7
v 0.3 1 0.7
v 0.4 0.2 0.7
v 0.4 0.3 0.7
v 0.4 0.4 0.7
v 0.4 1 0.7
v 0.5 0.3 0.7
v 0.5 1.4 0.7
v 0.6 0.2 0.7
v 0.6 1.4 0.7
v -1.2 1.6 0.2
v -1.2 2 0.2
v -1.1 1.5 0.2
v -1.1 1.6 0.2
v -1 1.4 0.2
v -1 1.5 0.2
v -1 1.7 0.2
v -1 2 0.2
v -0.9 1.3 0.2
v -0.9 1.4 0.2
v -0.9 1.6 0.2
v -0.9 1.7 0.2
v -0.8 1.3 0.2
v -0.8 1.4 0.2
v -0.8 1.5 0.2
v -0.8 1.6 0.2
v -0.7 1.4 0.2
v -0.7 1.5 0.2
v 0.5 1.4 0.2
v 0.5 1.5 0.2
v 0.6 1.3 0.2
v 0.6 1.4 0.2
v 0.6 1.5 0.2
v 0.6 1.6 0.2
v 0.7 1.3 0.2
v 0.7 1.4 0.2
v 0.7 1.6 0.2
v 0.7 1.7 0.2
v 0.8 1.4 0.2
v 0.8 1.5 0.2
v 0.8 1.7 0.2
v 0.8 2 0.2
v 0.9 1.5 0.2
v 0.9 1.6 0.2
v 1 1.6 0.2
v 1 2 0.2
v -1.2 1.6 0
v -1.2 2 0
v -1.1 1.5 0
v -1.1 1.6 0
v -1 1.4 0
v -1 1.5 0
v -1 1.7 0
v -1 2 0
v -0.9 1.3 0
v -0.9 1.4 0
v -0.9 1.6 0
v -0.9 1.7 0
v -0.8 1.3 0
v -0.8 1.4 0
v -0.8 1.5 0
v -0.8 1.6 0
v -0.7 1.4 0
v -0.7 1.5 0
v 0.5 1.4 0
v 0.5 1.5 0
v 0.6 1.3 0
v 0.6 1.4 0
v 0.6 1.5 0
v 0.6 1.6 0
v 0.7 1.3 0
v 0.7 1.4 0
v 0.7 1.6 0
v 0.7 1.7 0
v 0.8 1.4 0
v 0.8 1.5 0
v 0.8 1.7 0
v 0.8 2 0
v 0.9 1.5 0
v 0.9 1.6 0
v 1 1.6 0
v 1 2 0
v -0.8 0.2 -0.6
v -0.8 1.4 -0.6
v -0.6 1.4 -0.6
v -0.6 1.5 -0.6
v 0.4 1.4 -0.6
v 0.4 1.5 -0.6
v 0.6 0.2 -0.6
v 0.6 1.4 -0.6
v -0.6 0.2 0.8
v 0.4 0.2 0.8
v -0.8 0.2 0.7
v -0.6 0.2 0.7
v 0.4 0.2 0.7
v 0.6 0.2 0.7
v -0.7 0.2 0.6
v -0.6 0.2 0.6
v 0.4 0.2 0.6
v 0.5 0.2 0.6
v -0.7 0.2 -0.5
v 0.5 0.2 -0.5
v -0.8 0.2 -0.6
v 0.6 0.2 -0.6
v -0.7 0.3 0.8
v -0.6 0.3 0.8
v 0.4 0.3 0.8
v 0.5 0.3 0.8
v -0.7 0.3 0.7
v -0.6 0.3 0.7
v 0.4 0.3 0.7
v 0.5 0.3 0.7
v -0.2 0.9 0.9
v 1.19209e-07 0.9 0.9
v -0.3 0.9 0.8
v -0.2 0.9 0.8
v 1.19209e-07 0.9 0.8
v 0.1 0.9 0.8
v -0.3 0.9 0.7
v -0.2 0.9 0.7
v 1.19209e-07 0.9 0.7
v 0.1 0.9 0.7
v -0.6 1 0.8
v -0.5 1 0.8
v -0.4 1 0.8
v -0.3 1 0.8
v 0.1 1 0.8
v 0.2 1 0.8
v 0.3 1 0.8
v 0.4 1 0.8
v -0.6 1 0.7
v -0.5 1 0.7
v -0.4 1 0.7
v -0.3 1 0.7
v 0.1 1 0.7
v 0.2 1 0.7
v 0.3 1 0.7
v 0.4 1 0.7
v -0.3 1.1 0.9
v -0.2 1.1 0.9
v 1.19209e-07 1.1 0.9
v 0.1 1.1 0.9
v -0.3 1.1 0.8
v -0.2 1.1 0.8
v 1.19209e-07 1.1 0.8
v 0.1 1.1 0.8
v -0.4 1.2 0.9
v -0.3 1.2 0.9
v 0.1 1.2 0.9
v 0.2 1.2 0.9
v -0.4 1.2 0.8
v -0.3 1.2 0.8
v 0.1 1.2 0.8
v 0.2 1.2 0.8
v -0.6 1.3 0.9
v -0.4 1.3 0.9
v 0.2 1.3 0.9
v 0.4 1.3 0.9
v -0.6 1.3 0.8
v -0.4 1.3 0.8
v 0.2 1.3 0.8
v 0.4 1.3 0.8
v -0.9 1.3 0.2
v -0.8 1.3 0.2
v 0.6 1.3 0.2
v 0.7 1.3 0.2
v -0.9 1.3 0
v -0.8 1.3 0
v 0.6 1.3 0
v 0.7 1.3 0
v -1 1.4 0.2
v -0.9 1.4 0.2
v 0.7 1.4 0.2
v 0.8 1.4 0.2
v -1 1.4 0
v -0.9 1.4 0
v 0.7 1.4 0
v 0.8 1.4 0
v -1.1 1.5 0.2
v -1 1.5 0.2
v 0.8 1.5 0.2
v 0.9 1.5 0.2
v -1.1 1.5 0
v -1 1.5 0
v 0.8 1.5 0
v 0.9 1.5 0
v -1.2 1.6 0.2
v -1.1 1.6 0.2
v 0.9 1.6 0.2
v 1 1.6 0.2
v -1.2 1.6 0
v -1.1 1.6 0
v 0.9 1.6 0
v 1 1.6 0
v -0.4 0.3 0.8
v -0.2 0.3 0.8
v 1.19209e-07 0.3 0.8
v 0.2 0.3 0.8
v -0.4 0.3 0.7
v -0.2 0.3 0.7
v 1.19209e-07 0.3 0.7
v 0.2 0.3 0.7
v -0.6 0.4 0.8
v -0.5 0.4 0.8
v 0.3 0.4 0.8
v 0.4 0.4 0.8
v -0.6 0.4 0.7
v -0.5 0.4 0.7
v 0.3 0.4 0.7
v 0.4 0.4 0.7
v -0.7 1.4 0.8
v -0.6 1.4 0.8
v 0.4 1.4 0.8
v 0.5 1.4 0.8
v -0.8 1.4 0.7
v -0.7 1.4 0.7
v 0.5 1.4 0.7
v 0.6 1.4 0.7
v -0.8 1.4 0.2
v -0.7 1.4 0.2
v 0.5 1.4 0.2
v 0.6 1.4 0.2
v -0.8 1.4 0
v -0.7 1.4 0
v 0.5 1.4 0
v 0.6 1.4 0
v -0.8 1.4 -0.6
v -0.6 1.4 -0.6
v 0.4 1.4 -0.6
v 0.6 1.4 -0.6
v -0.6 1.5 0.9
v 0.4 1.5 0.9
v -0.8 1.5 0.2
v -0.7 1.5 0.2
v 0.5 1.5 0.2
v 0.6 1.5 0.2
v -0.8 1.5 0
v -0.7 1.5 0
v 0.5 1.5 0
v 0.6 1.5 0
v -0.6 1.5 -0.6
v 0.4 1.5 -0.6
v -0.9 1.6 0.2
v -0.8 1.6 0.2
v 0.6 1.6 0.2
v 0.7 1.6 0.2
v -0.9 1.6 0
v -0.8 1.6 0
v 0.6 1.6 0
v 0.7 1.6 0
v -1 1.7 0.2
v -0.9 1.7 0.2
v 0.7 1.7 0.2
v 0.8 1.7 0.2
v -1 1.7 0
v -0.9 1.7 0
v 0.7 1.7 0
v 0.8 1.7 0
v -1.2 2 0.2
v -1 2 0.2
v 0.8 2 0.2
v 1 2 0.2
v -1.2 2 0
v -1 2 0
v 0.8 2 0
v 1 2 0

# faces
f 3/4/1 2/4/1 1/4/1
f 4/4/1 2/4/1 3/4/1
f 7/4/1 6/4/1 5/4/1
f 8/4/1 6/4/1 7/4/1
f 11/4/1 10/4/1 9/4/1
f 12/4/1 10/4/1 11/4/1
f 15/4/1 14/4/1 13/4/1
f 16/4/1 14/4/1 15/4/1
f 19/4/1 18/4/1 17/4/1
f 20/4/1 18/4/1 19/4/1
f 21/4/1 19/4/1 17/4/1
f 22/4/1 19/4/1 21/4/1
f 23/4/1 18/4/1 20/4/1
f 24/4/1 18/4/1 23/4/1
f 27/4/1 26/4/1 25/4/1
f 28/4/1 26/4/1 27/4/1
f 31/4/1 30/4/1 29/4/1
f 32/4/1 30/4/1 31/4/1
f 35/4/1 34/4/1 33/4/1
f 37/4/1 35/4/1 33/4/1
f 37/4/1 36/4/1 35/4/1
f 38/4/1 36/4/1 37/4/1
f 41/4/1 40/4/1 39/4/1
f 42/4/1 40/4/1 41/4/1
f 45/4/1 44/4/1 43/4/1
f 46/4/1 44/4/1 45/4/1
f 49/4/1 48/4/1 47/4/1
f 50/4/1 48/4/1 49/4/1
f 53/4/1 52/4/1 51/4/1
f 54/4/1 52/4/1 53/4/1
f 58/4/1 56/4/1 55/4/1
f 59/4/1 56/4/1 58/4/1
f 60/4/1 58/4/1 57/4/1
f 61/4/1 58/4/1 60/4/1
f 64/4/1 63/4/1 62/4/1
f 65/4/1 64/4/1 62/4/1
f 66/4/1 65/4/1 62/4/1
f 67/4/1 65/4/1 66/4/1
f 70/4/1 69/4/1 68/4/1
f 71/4/1 69/4/1 70/4/1
f 74/4/1 73/4/1 72/4/1
f 75/4/1 73/4/1 74/4/1
f 78/4/1 77/4/1 76/4/1
f 79/4/1 77/4/1 78/4/1
f 82/4/1 81/4/1 80/4/1
f 83/4/1 81/4/1 82/4/1
f 86/4/1 85/4/1 84/4/1
f 87/4/1 85/4/1 86/4/1
f 88/4/2 89/4/2 90/4/2
f 90/4/2 89/4/2 91/4/2
f 92/4/2 93/4/2 94/4/2
f 94/4/2 93/4/2 95/4/2
f 96/4/2 97/4/2 98/4/2
f 98/4/2 97/4/2 99/4/2
f 100/4/2 101/4/2 102/4/2
f 102/4/2 101/4/2 103/4/2
f 104/4/2 105/4/2 106/4/2
f 106/4/2 105/4/2 107/4/2
f 108/4/2 109/4/2 110/4/2
f 108/4/2 110/4/2 111/4/2
f 108/4/2 111/4/2 112/4/2
f 112/4/2 111/4/2 113/4/2
f 114/4/2 115/4/2 117/4/2
f 117/4/2 115/4/2 118/4/2
f 116/4/2 117/4/2 119/4/2
f 119/4/2 117/4/2 120/4/2
f 121/4/2 122/4/2 123/4/2
f 123/4/2 122/4/2 124/4/2
f 125/4/2 126/4/2 127/4/2
f 127/4/2 126/4/2 128/4/2
f 129/4/2 130/4/2 131/4/2
f 131/4/2 130/4/2 132/4/2
f 133/4/2 134/4/2 135/4/2
f 135/4/2 134/4/2 136/4/2
f 137/4/2 138/4/2 139/4/2
f 139/4/2 138/4/2 140/4/2
f 141/4/2 142/4/2 143/4/2
f 141/4/2 143/4/2 145/4/2
f 143/4/2 144/4/2 145/4/2
f 145/4/2 144/4/2 146/4/2
f 147/4/2 148/4/2 149/4/2
f 149/4/2 148/4/2 150/4/2
f 151/4/2 152/4/2 153/4/2
f 153/4/2 152/4/2 154/4/2
f 151/4/2 153/4/2 155/4/2
f 155/4/2 153/4/2 156/4/2
f 154/4/2 152/4/2 157/4/2
f 157/4/2 152/4/2 158/4/2
f 159/4/2 160/4/2 161/4/2
f 161/4/2 160/4/2 162/4/2
f 163/4/2 164/4/2 165/4/2
f 165/4/2 164/4/2 166/4/2
f 167/4/2 168/4/2 169/4/2
f 169/4/2 168/4/2 170/4/2
f 171/4/2 172/4/2 173/4/2
f 173/4/2 172/4/2 174/4/2
f 178/4/3 176/4/3 175/4/3
f 180/4/3 178/4/3 177/4/3
f 182/4/3 180/4/3 179/4/3
f 183/4/3 182/4/3 181/4/3
f 184/4/3 180/4/3 182/4/3
f 184/4/3 182/4/3 183/4/3
f 185/4/3 180/4/3 184/4/3
f 186/4/3 178/4/3 180/4/3
f 186/4/3 180/4/3 185/4/3
f 187/4/3 178/4/3 186/4/3
f 188/4/3 176/4/3 178/4/3
f 188/4/3 178/4/3 187/4/3
f 189/4/3 176/4/3 188/4/3
f 190/4/3 176/4/3 189/4/3
f 194/4/3 192/4/3 191/4/3
f 195/4/3 192/4/3 194/4/3
f 196/4/3 192/4/3 195/4/3
f 197/4/3 192/4/3 196/4/3
f 198/4/3 192/4/3 197/4/3
f 199/4/3 194/4/3 193/4/3
f 199/4/3 195/4/3 194/4/3
f 200/4/3 197/4/3 196/4/3
f 201/4/3 199/4/3 193/4/3
f 201/4/3 200/4/3 199/4/3
f 202/4/3 197/4/3 200/4/3
f 202/4/3 200/4/3 201/4/3
f 203/4/3 197/4/3 202/4/3
f 204/4/3 197/4/3 203/4/3
f 206/4/3 203/4/3 202/4/3
f 207/4/3 203/4/3 206/4/3
f 208/4/3 203/4/3 207/4/3
f 209/4/3 201/4/3 193/4/3
f 210/4/3 206/4/3 205/4/3
f 210/4/3 207/4/3 206/4/3
f 211/4/3 207/4/3 210/4/3
f 212/4/3 209/4/3 193/4/3
f 212/4/3 210/4/3 209/4/3
f 213/4/3 210/4/3 212/4/3
f 215/4/3 214/4/3 213/4/3
f 216/4/3 214/4/3 215/4/3
f 217/4/3 214/4/3 216/4/3
f 219/4/3 212/4/3 193/4/3
f 220/4/3 217/4/3 216/4/3
f 220/4/3 218/4/3 217/4/3
f 221/4/3 218/4/3 220/4/3
f 223/4/3 221/4/3 220/4/3
f 223/4/3 222/4/3 221/4/3
f 223/4/3 220/4/3 219/4/3
f 224/4/3 222/4/3 223/4/3
f 225/4/3 219/4/3 193/4/3
f 225/4/3 223/4/3 219/4/3
f 226/4/3 223/4/3 225/4/3
f 227/4/3 223/4/3 226/4/3
f 228/4/3 222/4/3 224/4/3
f 229/4/3 222/4/3 228/4/3
f 231/4/3 229/4/3 228/4/3
f 231/4/3 230/4/3 229/4/3
f 231/4/3 228/4/3 227/4/3
f 231/4/3 227/4/3 226/4/3
f 232/4/3 230/4/3 231/4/3
f 235/4/3 234/4/3 233/4/3
f 236/4/3 234/4/3 235/4/3
f 237/4/3 235/4/3 233/4/3
f 238/4/3 235/4/3 237/4/3
f 241/3/3 240/3/3 239/3/3
f 242/3/3 240/3/3 241/3/3
f 247/3/3 244/3/3 243/3/3
f 247/2/3 245/2/3 244/2/3
f 248/3/3 246/3/3 245/3/3
f 248/2/3 245/2/3 247/2/3
f 249/3/3 246/3/3 248/3/3
f 250/3/3 246/3/3 249/3/3
f 251/3/3 247/3/3 243/3/3
f 251/3/3 248/3/3 247/3/3
f 251/3/3 249/3/3 248/3/3
f 252/3/3 249/3/3 251/3/3
f 255/3/3 254/3/3 253/3/3
f 256/3/3 254/3/3 255/3/3
f 257/3/3 254/3/3 256/3/3
f 259/3/3 255/3/3 253/3/3
f 260/2/3 256/2/3 255/2/3
f 260/3/3 255/3/3 259/3/3
f 261/3/3 257/3/3 256/3/3
f 261/2/3 256/2/3 260/2/3
f 261/3/3 258/3/3 257/3/3
f 262/3/3 258/3/3 261/3/3
f 267/3/3 264/3/3 263/3/3
f 268/3/3 264/3/3 267/3/3
f 269/4/3 266/4/3 265/4/3
f 271/4/3 269/4/3 265/4/3
f 271/4/3 270/4/3 269/4/3
f 272/4/3 270/4/3 271/4/3
f 276/4/3 274/4/3 273/4/3
f 278/4/3 276/4/3 275/4/3
f 279/4/3 274/4/3 276/4/3
f 279/4/3 276/4/3 278/4/3
f 280/4/3 274/4/3 279/4/3
f 282/4/3 278/4/3 277/4/3
f 282/4/3 279/4/3 278/4/3
f 283/4/3 279/4/3 282/4/3
f 284/4/3 279/4/3 283/4/3
f 285/4/3 282/4/3 281/4/3
f 285/4/3 283/4/3 282/4/3
f 286/4/3 283/4/3 285/4/3
f 287/4/3 283/4/3 286/4/3
f 288/4/3 283/4/3 287/4/3
f 289/4/3 287/4/3 286/4/3
f 290/4/3 287/4/3 289/4/3
f 294/4/3 292/4/3 291/4/3
f 295/4/3 292/4/3 294/4/3
f 297/4/3 295/4/3 294/4/3
f 297/4/3 296/4/3 295/4/3
f 297/4/3 294/4/3 293/4/3
f 298/4/3 296/4/3 297/4/3
f 299/4/3 296/4/3 298/4/3
f 301/4/3 299/4/3 298/4/3
f 301/4/3 300/4/3 299/4/3
f 302/4/3 300/4/3 301/4/3
f 303/4/3 300/4/3 302/4/3
f 305/4/3 303/4/3 302/4/3
f 305/4/3 304/4/3 303/4/3
f 306/4/3 304/4/3 305/4/3
f 307/4/3 304/4/3 306/4/3
f 308/4/3 304/4/3 307/4/3
f 309/4/4 310/4/4 312/4/4
f 311/4/4 312/4/4 314/4/4
f 312/4/4 310/4/4 315/4/4
f 314/4/4 312/4/4 315/4/4
f 315/4/4 310/4/4 316/4/4
f 313/4/4 314/4/4 318/4/4
f 314/4/4 315/4/4 318/4/4
f 318/4/4 315/4/4 319/4/4
f 319/4/4 315/4/4 320/4/4
f 317/4/4 318/4/4 321/4/4
f 318/4/4 319/4/4 321/4/4
f 321/4/4 319/4/4 322/4/4
f 322/4/4 319/4/4 323/4/4
f 323/4/4 319/4/4 324/4/4
f 322/4/4 323/4/4 325/4/4
f 325/4/4 323/4/4 326/4/4
f 327/4/4 328/4/4 330/4/4
f 330/4/4 328/4/4 331/4/4
f 330/4/4 331/4/4 333/4/4
f 331/4/4 332/4/4 333/4/4
f 329/4/4 330/4/4 333/4/4
f 333/4/4 332/4/4 334/4/4
f 334/4/4 332/4/4 335/4/4
f 334/4/4 335/4/4 337/4/4
f 335/4/4 336/4/4 337/4/4
f 337/4/4 336/4/4 338/4/4
f 338/4/4 336/4/4 339/4/4
f 338/4/4 339/4/4 341/4/4
f 339/4/4 340/4/4 341/4/4
f 341/4/4 340/4/4 342/4/4
f 342/4/4 340/4/4 343/4/4
f 343/4/4 340/4/4 344/4/4
f 345/4/4 346/4/4 347/4/4
f 345/4/4 347/4/4 349/4/4
f 347/4/4 348/4/4 349/4/4
f 349/4/4 348/4/4 350/4/4
f 345/4/4 349/4/4 351/4/4
f 351/4/4 349/4/4 352/4/4
f 356/4/5 354/4/5 353/4/5
f 357/4/5 354/4/5 356/4/5
f 359/4/5 356/4/5 355/4/5
f 360/1/5 357/1/5 356/1/5
f 360/4/5 356/4/5 359/4/5
f 361/4/5 358/4/5 357/4/5
f 361/1/5 357/1/5 360/1/5
f 362/4/5 358/4/5 361/4/5
f 363/1/5 360/1/5 359/1/5
f 363/4/5 359/4/5 355/4/5
f 363/1/5 362/1/5 361/1/5
f 363/1/5 361/1/5 360/1/5
f 364/4/5 358/4/5 362/4/5
f 364/1/5 362/1/5 363/1/5
f 365/4/5 363/4/5 355/4/5
f 365/4/5 364/4/5 363/4/5
f 366/4/5 358/4/5 364/4/5
f 366/4/5 364/4/5 365/4/5
f 371/4/5 368/4/5 367/4/5
f 372/4/5 368/4/5 371/4/5
f 373/4/5 370/4/5 369/4/5
f 374/4/5 370/4/5 373/4/5
f 378/4/5 376/4/5 375/4/5
f 379/4/5 376/4/5 378/4/5
f 381/4/5 378/4/5 377/4/5
f 382/4/5 378/4/5 381/4/5
f 383/4/5 380/4/5 379/4/5
f 384/4/5 380/4/5 383/4/5
f 393/4/5 386/4/5 385/4/5
f 394/4/5 386/4/5 393/4/5
f 395/4/5 388/4/5 387/4/5
f 396/4/5 388/4/5 395/4/5
f 397/4/5 390/4/5 389/4/5
f 398/4/5 390/4/5 397/4/5
f 399/4/5 392/4/5 391/4/5
f 400/4/5 392/4/5 399/4/5
f 405/4/5 402/4/5 401/4/5
f 406/4/5 402/4/5 405/4/5
f 407/4/5 404/4/5 403/4/5
f 408/4/5 404/4/5 407/4/5
f 413/4/5 410/4/5 409/4/5
f 414/4/5 410/4/5 413/4/5
f 415/4/5 412/4/5 411/4/5
f 416/4/5 412/4/5 415/4/5
f 421/4/5 418/4/5 417/4/5
f 422/4/5 418/4/5 421/4/5
f 423/4/5 420/4/5 419/4/5
f 424/4/5 420/4/5 423/4/5
f 429/4/5 426/4/5 425/4/5
f 430/4/5 426/4/5 429/4/5
f 431/4/5 428/4/5 427/4/5
f 432/4/5 428/4/5 431/4/5
f 437/4/5 434/4/5 433/4/5
f 438/4/5 434/4/5 437/4/5
f 439/4/5 436/4/5 435/4/5
f 440/4/5 436/4/5 439/4/5
f 445/4/5 442/4/5 441/4/5
f 446/4/5 442/4/5 445/4/5
f 447/4/5 444/4/5 443/4/5
f 448/4/5 444/4/5 447/4/5
f 453/4/5 450/4/5 449/4/5
f 454/4/5 450/4/5 453/4/5
f 455/4/5 452/4/5 451/4/5
f 456/4/5 452/4/5 455/4/5
f 457/4/6 458/4/6 461/4/6
f 461/4/6 458/4/6 462/4/6
f 459/4/6 460/4/6 463/4/6
f 463/4/6 460/4/6 464/4/6
f 465/4/6 466/4/6 469/4/6
f 469/4/6 466/4/6 470/4/6
f 467/4/6 468/4/6 471/4/6
f 471/4/6 468/4/6 472/4/6
f 473/4/6 474/4/6 478/4/6
f 475/4/6 476/4/6 479/4/6
f 477/4/6 478/4/6 481/4/6
f 478/4/6 474/4/6 482/4/6
f 481/4/6 478/4/6 482/4/6
f 479/4/6 480/4/6 483/4/6
f 475/4/6 479/4/6 483/4/6
f 483/4/6 480/4/6 484/4/6
f 482/4/6 474/4/6 486/4/6
f 475/4/6 483/4/6 487/4/6
f 485/4/6 486/4/6 489/4/6
f 486/4/6 474/4/6 490/4/6
f 489/4/6 486/4/6 490/4/6
f 487/4/6 488/4/6 491/4/6
f 475/4/6 487/4/6 491/4/6
f 491/4/6 488/4/6 492/4/6
f 495/4/6 496/4/6 499/4/6
f 499/4/6 496/4/6 500/4/6
f 497/4/6 498/4/6 501/4/6
f 501/4/6 498/4/6 502/4/6
f 493/4/6 494/4/6 503/4/6
f 503/4/6 494/4/6 504/4/6
f 505/4/6 506/4/6 509/4/6
f 509/4/6 506/4/6 510/4/6
f 507/4/6 508/4/6 511/4/6
f 511/4/6 508/4/6 512/4/6
f 513/4/6 514/4/6 517/4/6
f 517/4/6 514/4/6 518/4/6
f 515/4/6 516/4/6 519/4/6
f 519/4/6 516/4/6 520/4/6
f 521/4/6 522/4/6 525/4/6
f 525/4/6 522/4/6 526/4/6
f 523/4/6 524/4/6 527/4/6
f 527/4/6 524/4/6 528/4/6
